# xmcd
#
# Track frame offsets: 
#        150
#        11068
#        21385
#        34471
#        46971
#        59861
#        67765
#        78317
#        88662
#        98354
#        108335
#        121226
#        134293
#        145294
#        156724
#        170728
#        181170
#        193417
#        206347
#        216874
#
# Disc length: 3073 seconds
#
# Revision: 1
# Processed by: cddbd v1.5.2PL0 Copyright (c) Steve Scherf et al.
# Submitted via: ExactAudioCopy v0.90b4
#
DISCID=260bff14
DTITLE=Dean Martin - The Platinum Collection [CD2]
DYEAR=2016
DGENRE=Jazz
TTITLE0=Ain't That A Kick In The Head
TTITLE1=Mambo Italiano
TTITLE2=In Napoli
TTITLE3=Write To Me From Naples
TTITLE4=The Man Who Plays The Mandolino
TTITLE5=You've Got Me Crying Again
TTITLE6=For You
TTITLE7=The Look
TTITLE8=Only Forever
TTITLE9=Maybe
TTITLE10=Nevertheless (I'm In Love With You)
TTITLE11=Once In A While
TTITLE12=Innamorata (Sweetheart)
TTITLE13=True Love
TTITLE14=Mississippi Mud
TTITLE15=Beau James
TTITLE16=I've Got My Love To Keep Me Warm
TTITLE17=Santa Lucia
TTITLE18=Way Down Yonder In New Orleans
TTITLE19=Georgia On My Mind
EXTD=YEAR: 2016
EXTT0=
EXTT1=
EXTT2=
EXTT3=
EXTT4=
EXTT5=
EXTT6=
EXTT7=
EXTT8=
EXTT9=
EXTT10=
EXTT11=
EXTT12=
EXTT13=
EXTT14=
EXTT15=
EXTT16=
EXTT17=
EXTT18=
EXTT19=
PLAYORDER=
